<svg xmlns="http://www.w3.org/2000/svg" width="512" height="512" viewBox="0 0 512 512">
  <rect width="512" height="512" rx="64" fill="#0a0000"/>
  <!-- Gate pillars -->
  <rect x="106" y="106" width="42" height="320" rx="6" fill="#3d0000" stroke="#8b0000" stroke-width="2"/>
  <rect x="364" y="106" width="42" height="320" rx="6" fill="#3d0000" stroke="#8b0000" stroke-width="2"/>
  <!-- Gate arch -->
  <path d="M106 106 Q256 26 406 106" fill="none" stroke="#8b0000" stroke-width="5"/>
  <!-- Inner glow -->
  <circle cx="256" cy="256" r="80" fill="url(#glow512)"/>
  <!-- Runes on left pillar -->
  <line x1="127" y1="160" x2="127" y2="185" stroke="#ff1a1a" stroke-width="3" opacity="0.6"/>
  <line x1="127" y1="210" x2="127" y2="235" stroke="#ff1a1a" stroke-width="3" opacity="0.4"/>
  <line x1="127" y1="260" x2="127" y2="285" stroke="#ff1a1a" stroke-width="3" opacity="0.6"/>
  <line x1="127" y1="310" x2="127" y2="335" stroke="#ff1a1a" stroke-width="3" opacity="0.3"/>
  <!-- Runes on right pillar -->
  <line x1="385" y1="160" x2="385" y2="185" stroke="#ff1a1a" stroke-width="3" opacity="0.4"/>
  <line x1="385" y1="210" x2="385" y2="235" stroke="#ff1a1a" stroke-width="3" opacity="0.6"/>
  <line x1="385" y1="260" x2="385" y2="285" stroke="#ff1a1a" stroke-width="3" opacity="0.4"/>
  <line x1="385" y1="310" x2="385" y2="335" stroke="#ff1a1a" stroke-width="3" opacity="0.6"/>
  <!-- Embers -->
  <circle cx="200" cy="350" r="5" fill="#ff4500" opacity="0.7"/>
  <circle cx="290" cy="330" r="4" fill="#ff1a1a" opacity="0.5"/>
  <circle cx="240" cy="370" r="4.5" fill="#ff4500" opacity="0.6"/>
  <circle cx="320" cy="360" r="3" fill="#ff1a1a" opacity="0.4"/>
  <circle cx="180" cy="380" r="3.5" fill="#ff4500" opacity="0.5"/>
  <defs>
    <radialGradient id="glow512">
      <stop offset="0%" stop-color="#ff1a1a" stop-opacity="0.4"/>
      <stop offset="60%" stop-color="#8b0000" stop-opacity="0.15"/>
      <stop offset="100%" stop-color="#000000" stop-opacity="0"/>
    </radialGradient>
  </defs>
</svg>
